<svg id="Capa_1" enable-background="new 0 0 512 512" height="512" viewBox="0 0 512 512" width="512" xmlns="http://www.w3.org/2000/svg"><g><g><path d="m457.421 405.434-4.872 17.006c-2.684 9.369-15.961 9.369-18.645 0l-4.872-17.006c-.835-2.916-1.259-5.935-1.259-8.968v-30.268h30.906v30.268c.002 3.034-.422 6.052-1.258 8.968z" fill="#f6e266"/></g><g><path d="m443.227 366.199v30.268c0 3.033-.424 6.052-1.259 8.968l-4.872 17.006c-.358 1.251-.91 2.33-1.596 3.247 4.45 5.95 14.724 4.871 17.049-3.247l4.872-17.006c.835-2.916 1.259-5.935 1.259-8.968v-30.268z" fill="#ffd064"/></g><g><path d="m458.681 393.903h-30.906v-248.133c0-8.535 6.919-15.453 15.453-15.453 8.535 0 15.453 6.919 15.453 15.453z" fill="#365e7d"/></g><g><path d="m443.227 130.317c-2.818 0-5.452.767-7.727 2.084 4.615 2.673 7.727 7.652 7.727 13.369v248.132h15.453v-248.132c.001-8.534-6.918-15.453-15.453-15.453z" fill="#2b4d66"/></g><g><path d="m462.533 262.11h-74.518v-70.299h74.518c2.761 0 5 2.239 5 5v60.299c0 2.761-2.238 5-5 5z" fill="#ecbe6b"/></g><g><path d="m462.538 191.811h-14.513v45.796c0 2.759-2.236 4.995-4.995 4.995h-55.016v19.508h74.523c2.759 0 4.995-2.236 4.995-4.995v-60.309c.001-2.759-2.235-4.995-4.994-4.995z" fill="#eab14d"/></g><g><path d="m386.541 504.507h-314.835c-15.044 0-27.239-12.195-27.239-27.239v-389.222c0-15.044 12.195-27.239 27.239-27.239h314.835c15.044 0 27.239 12.195 27.239 27.239v389.223c0 15.043-12.196 27.238-27.239 27.238z" fill="#ecbe6b"/></g><g><path d="m390.609 61.107c.196 1.319.3 2.668.3 4.041v405.351c0 6.151-4.987 11.138-11.138 11.138 0 0-333.685-.104-335.004-.3 1.952 13.112 13.256 23.171 26.911 23.171h314.889c15.029 0 27.212-12.183 27.212-27.212v-389.278c.001-13.655-10.058-24.959-23.17-26.911z" fill="#eab14d"/></g><g><path d="m375.464 470.238h-292.682c-2.761 0-5-2.239-5-5v-357.521c0-2.761 2.239-5 5-5h292.682c2.761 0 5 2.239 5 5v357.521c0 2.762-2.238 5-5 5z" fill="#f9f6f9"/></g><g><path d="m375.469 102.717h-19.111v338.421c0 2.759-2.236 4.995-4.995 4.995h-273.581v19.111c0 2.759 2.236 4.995 4.995 4.995h292.692c2.759 0 4.995-2.236 4.995-4.995v-357.532c0-2.759-2.236-4.995-4.995-4.995z" fill="#e7ecf6"/></g><g><path d="m269.675 30.662-24.734-20.621c-1.975-1.647-4.465-2.548-7.037-2.548h-17.561c-2.572 0-5.062.902-7.037 2.548l-24.734 20.621c-2.504 2.088-3.952 5.18-3.952 8.44v55.293h89.007v-55.293c0-3.26-1.448-6.352-3.952-8.44zm-40.401 23.461c-5.897 0-10.677-4.78-10.677-10.677s4.78-10.677 10.677-10.677 10.677 4.78 10.677 10.677-4.781 10.677-10.677 10.677z" fill="#365e7d"/></g><g><path d="m269.675 30.662-24.734-20.621c-1.975-1.647-4.465-2.548-7.037-2.548h-17.561c-2.572 0-5.062.902-7.037 2.548l-.8.667 32.194 26.84c3.81 3.176 6.013 7.881 6.013 12.841v44.005h22.915v-55.292c-.001-3.26-1.449-6.352-3.953-8.44z" fill="#2b4d66"/></g><g><path d="m319.033 123.241h-179.82c-2.761 0-5-2.239-5-5v-4.291c0-15.464 12.536-28 28-28h133.82c15.464 0 28 12.536 28 28v4.291c0 2.761-2.238 5-5 5z" fill="#407093"/></g><g><path d="m297.224 85.98c1.025 2.91 1.589 6.037 1.589 9.297v4.324c0 2.759-2.236 4.995-4.995 4.995h-158.006c-1.032 2.918-1.599 6.055-1.599 9.327v4.324c0 2.759 2.236 4.995 4.995 4.995h179.83c2.759 0 4.995-2.236 4.995-4.995v-4.324c0-15.06-11.901-27.333-26.809-27.943z" fill="#365e7d"/></g><g><path d="m466.173 184.862v-39.091c0-12.652-10.293-22.946-22.946-22.946-10.335 0-19.093 6.869-21.955 16.281v-51.087c0-19.136-15.568-34.704-34.704-34.704h-105.448v-14.213c0-5.499-2.422-10.673-6.647-14.196l-24.734-20.619c-3.315-2.765-7.518-4.287-11.835-4.287h-17.561c-4.316 0-8.52 1.522-11.835 4.286l-24.734 20.621c-4.224 3.522-6.647 8.696-6.647 14.195v14.212h-105.448c-19.136 0-34.704 15.568-34.704 34.704v48.615c0 4.138 3.355 7.492 7.492 7.492s7.492-3.355 7.492-7.492v-48.614c0-10.873 8.846-19.719 19.719-19.719h105.448v10.159h-14.942c-12.696 0-23.85 6.71-30.116 16.767h-49.291c-6.886 0-12.487 5.602-12.487 12.487v357.531c0 6.886 5.602 12.487 12.487 12.487h292.692c6.886 0 12.487-5.602 12.487-12.487v-357.532c0-6.886-5.602-12.487-12.487-12.487h-49.291c-6.266-10.056-17.42-16.767-30.116-16.767h-14.942v-10.159h105.448c10.873 0 19.719 8.846 19.719 19.719v389.277c0 10.873-8.847 19.719-19.719 19.719h-71.439c-4.138 0-7.492 3.355-7.492 7.492 0 4.138 3.354 7.492 7.492 7.492h71.439c19.136 0 34.704-15.568 34.704-34.704v-72.039c.169.751 5.43 19.247 5.43 19.247 1.396 4.875 4.729 8.691 9.033 10.756v6.032c0 4.138 3.354 7.492 7.492 7.492s7.492-3.355 7.492-7.492v-6.032c4.304-2.064 7.637-5.88 9.033-10.756l4.871-17.006c1.028-3.589 1.549-7.3 1.549-11.031v-46.717c0-4.138-3.354-7.492-7.492-7.492s-7.492 3.355-7.492 7.492v36.661h-15.922v-116.807h15.922v45.727c0 4.138 3.354 7.492 7.492 7.492s7.492-3.355 7.492-7.492v-46.27c5.118-1.561 8.852-6.323 8.852-11.944v-60.309c.002-5.621-3.733-10.383-8.851-11.944zm-93.201 9.251v43.467h-238.009v-43.467zm-287.697 218.823v-43.467h34.703v43.467zm49.688-101.919h238.009v43.467h-238.009zm-14.985 43.467h-34.703v-43.467h34.703zm14.985-58.452v-43.467h238.009v43.467zm-14.985 0h-34.703v-43.467h34.703zm14.985 73.437h238.009v43.467h-238.009zm-14.985-131.889h-34.703v-43.467h34.703zm-34.703 225.166v-34.825h287.697v34.825zm287.697-352.536v68.919h-287.697v-68.919h41.641c-.128 1.221-.195 8.036-.195 8.036 0 6.886 5.602 12.487 12.487 12.487h179.83c6.886 0 12.487-5.602 12.487-12.487 0 0-.068-6.816-.195-8.036zm-56.431 3.712v1.826h-174.835v-1.826c0-11.292 9.187-20.479 20.479-20.479h133.876c11.293 0 20.48 9.187 20.48 20.479zm-124.429-35.464v-39.356c0-1.04.459-2.019 1.258-2.686l24.734-20.621c.627-.523 1.422-.811 2.239-.811h17.561c.816 0 1.611.288 2.238.811l24.735 20.62c.799.666 1.258 1.646 1.258 2.686v39.355h-74.023zm253.235 341.919c-.303 1.06-1.017 1.598-2.12 1.598s-1.817-.538-2.12-1.598c0 0-5.211-18.318-5.344-18.981h14.927c-.133.663-5.343 18.981-5.343 18.981zm-24.075-165.76v-55.314h38.769v55.314zm21.956-116.807c4.389 0 7.961 3.571 7.961 7.961v38.548h-15.922v-38.548c0-4.39 3.571-7.961 7.961-7.961z"/><path d="m280.32 497.015h-208.641c-10.873 0-19.719-8.846-19.719-19.719v-306.65c0-4.138-3.355-7.492-7.492-7.492s-7.492 3.355-7.492 7.492v306.65c0 19.136 15.568 34.704 34.704 34.704h208.64c4.138 0 7.492-3.355 7.492-7.492 0-4.138-3.354-7.493-7.492-7.493z"/><path d="m335.08 270.058c-4.616 0-6.621-.953-9.396-2.272-3.49-1.658-7.833-3.722-15.829-3.722-7.995 0-12.337 2.064-15.827 3.722-2.775 1.319-4.778 2.272-9.394 2.272s-6.619-.953-9.394-2.272c-3.49-1.658-7.832-3.722-15.827-3.722s-12.337 2.064-15.826 3.723c-2.775 1.319-4.778 2.271-9.392 2.271-4.615 0-6.62-.953-9.394-2.272-3.49-1.658-7.832-3.722-15.828-3.722-7.995 0-12.338 2.064-15.827 3.722-2.775 1.319-4.779 2.272-9.394 2.272s-6.62-.953-9.394-2.272c-3.489-1.658-7.831-3.722-15.827-3.722-4.138 0-7.492 3.355-7.492 7.492s3.355 7.492 7.492 7.492c4.615 0 6.62.953 9.394 2.272 3.489 1.658 7.832 3.722 15.827 3.722s12.338-2.064 15.827-3.722c2.775-1.319 4.779-2.272 9.394-2.272 4.616 0 6.62.953 9.395 2.272 3.49 1.658 7.832 3.722 15.827 3.722 7.994 0 12.337-2.064 15.825-3.723 2.775-1.319 4.778-2.271 9.393-2.271s6.619.953 9.394 2.272c3.49 1.658 7.832 3.722 15.827 3.722s12.337-2.064 15.827-3.722c2.775-1.319 4.778-2.272 9.394-2.272s6.621.953 9.396 2.272c3.49 1.658 7.833 3.722 15.829 3.722 4.138 0 7.492-3.355 7.492-7.492s-3.353-7.492-7.492-7.492z"/><path d="m158.531 220.088c4.615 0 6.62.953 9.394 2.272 3.489 1.658 7.832 3.722 15.827 3.722s12.338-2.064 15.827-3.722c2.775-1.319 4.779-2.272 9.394-2.272 4.616 0 6.62.953 9.395 2.272 3.49 1.658 7.832 3.722 15.827 3.722 7.994 0 12.337-2.064 15.825-3.723 2.775-1.318 4.778-2.271 9.393-2.271s6.619.953 9.394 2.272c3.49 1.658 7.832 3.722 15.827 3.722s12.337-2.064 15.827-3.722c2.775-1.319 4.778-2.272 9.394-2.272s6.621.953 9.396 2.272c3.49 1.658 7.833 3.722 15.829 3.722 4.138 0 7.492-3.355 7.492-7.492s-3.354-7.492-7.492-7.492c-4.616 0-6.621-.953-9.396-2.272-3.49-1.658-7.833-3.722-15.829-3.722-7.995 0-12.337 2.064-15.827 3.722-2.775 1.319-4.778 2.272-9.394 2.272s-6.619-.953-9.394-2.272c-3.49-1.658-7.832-3.722-15.827-3.722s-12.337 2.064-15.826 3.723c-2.775 1.318-4.778 2.271-9.392 2.271-4.615 0-6.62-.953-9.394-2.272-3.49-1.658-7.832-3.722-15.828-3.722-7.995 0-12.338 2.064-15.827 3.722-2.775 1.319-4.779 2.272-9.394 2.272s-6.62-.953-9.394-2.272c-3.489-1.658-7.831-3.722-15.827-3.722-4.138 0-7.492 3.355-7.492 7.492-.001 4.137 3.354 7.492 7.492 7.492z"/><path d="m335.08 386.962c-4.616 0-6.621-.953-9.396-2.272-3.49-1.658-7.833-3.722-15.829-3.722-7.995 0-12.337 2.064-15.827 3.722-2.775 1.319-4.778 2.272-9.394 2.272s-6.619-.953-9.394-2.272c-3.49-1.658-7.832-3.722-15.827-3.722s-12.337 2.064-15.826 3.723c-2.775 1.319-4.778 2.271-9.392 2.271-4.615 0-6.62-.953-9.394-2.272-3.49-1.658-7.832-3.722-15.828-3.722-7.995 0-12.338 2.064-15.827 3.722-2.775 1.319-4.779 2.272-9.394 2.272s-6.62-.953-9.394-2.272c-3.489-1.658-7.831-3.722-15.827-3.722-4.138 0-7.492 3.355-7.492 7.492s3.355 7.492 7.492 7.492c4.615 0 6.62.953 9.394 2.272 3.489 1.658 7.832 3.722 15.827 3.722s12.338-2.064 15.827-3.722c2.775-1.319 4.779-2.272 9.394-2.272 4.616 0 6.62.953 9.395 2.272 3.49 1.658 7.832 3.722 15.827 3.722 7.994 0 12.337-2.064 15.825-3.723 2.775-1.319 4.778-2.271 9.393-2.271s6.619.953 9.394 2.272c3.49 1.658 7.832 3.722 15.827 3.722s12.337-2.064 15.827-3.722c2.775-1.319 4.778-2.272 9.394-2.272s6.621.953 9.396 2.272c3.49 1.658 7.833 3.722 15.829 3.722 4.138 0 7.492-3.355 7.492-7.492s-3.353-7.492-7.492-7.492z"/><path d="m259.414 322.006c-7.995 0-12.337 2.064-15.826 3.723-2.775 1.319-4.778 2.271-9.392 2.271-4.615 0-6.62-.953-9.394-2.272-3.49-1.658-7.832-3.722-15.828-3.722-7.995 0-12.338 2.064-15.827 3.722-2.775 1.319-4.779 2.272-9.394 2.272s-6.62-.953-9.394-2.272c-3.489-1.658-7.831-3.722-15.827-3.722-4.138 0-7.492 3.355-7.492 7.492 0 4.138 3.355 7.492 7.492 7.492 4.615 0 6.62.953 9.394 2.272 3.489 1.659 7.832 3.722 15.827 3.722s12.338-2.064 15.827-3.722c2.775-1.319 4.779-2.272 9.394-2.272 4.616 0 6.62.953 9.395 2.272 3.49 1.659 7.832 3.722 15.827 3.722 7.994 0 12.337-2.064 15.825-3.723 2.775-1.318 4.778-2.271 9.393-2.271 4.138 0 7.492-3.355 7.492-7.492.001-4.137-3.354-7.492-7.492-7.492z"/><circle cx="229.274" cy="43.446" r="10.677"/></g></g></svg>