<svg height="512pt" viewBox="0 -48 512 512" width="512pt" xmlns="http://www.w3.org/2000/svg"><path d="m88.574219 45.109375c0-5.328125 1.113281-10.390625 3.109375-14.980469h-72.152344c-6.550781 0-11.863281 5.3125-11.863281 11.867188v6.222656c0 6.554688 5.3125 11.867188 11.863281 11.867188h72.152344c-1.996094-4.589844-3.109375-9.652344-3.109375-14.976563zm0 0" fill="#ff656f"/><path d="m166.902344 139.054688h-147.371094c-6.550781 0-11.863281 5.3125-11.863281 11.867187v6.222656c0 6.554688 5.3125 11.867188 11.863281 11.867188h147.371094c-4.148438-9.535157-4.148438-20.417969 0-29.957031zm0 0" fill="#fee55a"/><path d="m368.332031 247.980469h-348.800781c-6.550781 0-11.863281 5.3125-11.863281 11.867187v6.222656c0 6.554688 5.3125 11.867188 11.863281 11.867188h348.800781c-4.128906-9.503906-4.164062-20.378906 0-29.957031zm0 0" fill="#43cb8e"/><path d="m166.902344 356.90625h-147.371094c-6.550781 0-11.863281 5.3125-11.863281 11.863281v6.226563c0 6.550781 5.3125 11.867187 11.863281 11.867187h147.371094c-4.132813-9.503906-4.164063-20.378906 0-29.957031zm0 0" fill="#60b8fe"/><path d="m37.667969 48.21875v-6.222656c0-6.554688 5.3125-11.867188 11.863281-11.867188h-30c-6.550781 0-11.863281 5.3125-11.863281 11.867188v6.222656c0 6.554688 5.3125 11.867188 11.863281 11.867188h30c-6.550781 0-11.863281-5.3125-11.863281-11.867188zm0 0" fill="#ff4756"/><path d="m37.667969 157.144531v-6.222656c0-6.554687 5.3125-11.867187 11.863281-11.867187h-30c-6.550781 0-11.863281 5.3125-11.863281 11.867187v6.222656c0 6.554688 5.3125 11.867188 11.863281 11.867188h30c-6.550781 0-11.863281-5.3125-11.863281-11.867188zm0 0" fill="#ffd301"/><path d="m37.667969 266.070312v-6.222656c0-6.554687 5.3125-11.867187 11.863281-11.867187h-30c-6.550781 0-11.863281 5.3125-11.863281 11.867187v6.222656c0 6.554688 5.3125 11.867188 11.863281 11.867188h30c-6.550781 0-11.863281-5.3125-11.863281-11.867188zm0 0" fill="#00ba66"/><path d="m37.667969 374.996094v-6.222656c0-6.554688 5.3125-11.867188 11.863281-11.867188h-30c-6.550781 0-11.863281 5.3125-11.863281 11.867188v6.222656c0 6.554687 5.3125 11.867187 11.863281 11.867187h30c-6.550781 0-11.863281-5.3125-11.863281-11.867187zm0 0" fill="#23a8fe"/><g fill="#dfebfa"><path d="m492.800781 30.128906h-338.117187c4.132812 9.503906 4.164062 20.378906 0 29.957032h338.117187c6.550781 0 11.863281-5.3125 11.863281-11.867188v-6.222656c0-6.554688-5.3125-11.867188-11.863281-11.867188zm0 0"/><path d="m492.800781 139.054688h-262.902343c4.132812 9.503906 4.164062 20.378906 0 29.957031h262.898437c6.554687 0 11.867187-5.3125 11.867187-11.867188v-6.222656c0-6.554687-5.3125-11.867187-11.863281-11.867187zm0 0"/><path d="m492.800781 356.90625h-262.902343c4.132812 9.5 4.164062 20.378906 0 29.957031h262.898437c6.554687 0 11.867187-5.3125 11.867187-11.867187v-6.222656c0-6.554688-5.3125-11.867188-11.863281-11.867188zm0 0"/></g><path d="m160.789062 45.109375c0 20.769531-16.835937 37.605469-37.605468 37.605469-20.773438 0-37.609375-16.835938-37.609375-37.605469 0-20.773437 16.835937-37.609375 37.609375-37.609375 20.769531 0 37.605468 16.835938 37.605468 37.609375zm0 0" fill="#ff656f"/><path d="m115.824219 45.109375c0-15.390625 9.246093-28.609375 22.484375-34.433594-4.628906-2.039062-9.742188-3.175781-15.125-3.175781-20.773438 0-37.609375 16.839844-37.609375 37.609375s16.839843 37.605469 37.609375 37.605469c5.382812 0 10.496094-1.136719 15.125-3.171875-13.238282-5.824219-22.484375-19.046875-22.484375-34.433594zm0 0" fill="#ff4756"/><path d="m236.007812 154.035156c0 20.769532-16.835937 37.605469-37.609374 37.605469-20.769532 0-37.605469-16.835937-37.605469-37.605469 0-20.773437 16.835937-37.609375 37.605469-37.609375 20.773437 0 37.609374 16.835938 37.609374 37.609375zm0 0" fill="#fee55a"/><path d="m213.523438 119.601562c-4.628907-2.039062-9.742188-3.175781-15.125-3.175781-20.769532 0-37.605469 16.835938-37.605469 37.609375 0 20.769532 16.835937 37.605469 37.605469 37.605469 5.382812 0 10.496093-1.136719 15.125-3.175781-29.902344-13.152344-29.9375-55.691406 0-68.863282zm0 0" fill="#ffd301"/><path d="m437.441406 262.957031c0 20.769531-16.839844 37.609375-37.609375 37.609375s-37.609375-16.839844-37.609375-37.609375 16.839844-37.605469 37.609375-37.605469 37.609375 16.835938 37.609375 37.605469zm0 0" fill="#43cb8e"/><path d="m392.472656 262.957031c0-15.386719 9.25-28.609375 22.484375-34.433593-4.628906-2.035157-9.742187-3.171876-15.125-3.171876-20.769531 0-37.609375 16.835938-37.609375 37.605469s16.839844 37.609375 37.609375 37.609375c5.382813 0 10.496094-1.140625 15.125-3.175781-13.234375-5.820313-22.484375-19.042969-22.484375-34.433594zm0 0" fill="#00ba66"/><path d="m236.007812 371.882812c0 20.769532-16.835937 37.609376-37.609374 37.609376-20.769532 0-37.605469-16.839844-37.605469-37.609376 0-20.769531 16.835937-37.609374 37.605469-37.609374 20.773437 0 37.609374 16.839843 37.609374 37.609374zm0 0" fill="#60b8fe"/><path d="m213.523438 337.449219c-4.628907-2.035157-9.742188-3.175781-15.125-3.175781-20.769532 0-37.605469 16.839843-37.605469 37.609374 0 20.769532 16.835937 37.609376 37.605469 37.609376 5.382812 0 10.496093-1.140626 15.125-3.175782-29.902344-13.15625-29.9375-55.695312 0-68.867187zm0 0" fill="#23a8fe"/><path d="m492.800781 247.980469h-61.46875c4.148438 9.535156 4.148438 20.417969 0 29.957031h61.464844c6.554687 0 11.867187-5.3125 11.867187-11.867188v-6.222656c0-6.554687-5.3125-11.867187-11.863281-11.867187zm0 0" fill="#dfebfa"/><path d="m512 150.921875c0-10.679687-8.6875-19.367187-19.367188-19.367187h-255.316406c-7.800781-13.511719-22.390625-22.628907-39.082031-22.628907s-31.28125 9.117188-39.082031 22.628907h-139.785156c-10.679688 0-19.367188 8.6875-19.367188 19.367187v6.222656c0 10.679688 8.6875 19.367188 19.367188 19.367188h139.785156c7.800781 13.511719 22.390625 22.628906 39.082031 22.628906s31.28125-9.117187 39.082031-22.628906h255.316406c10.679688 0 19.367188-8.6875 19.367188-19.367188zm-358.257812 10.589844h-134.375c-2.40625 0-4.367188-1.957031-4.367188-4.367188v-6.222656c0-2.40625 1.960938-4.367187 4.367188-4.367187h134.375c-.835938 5.015624-.78125 10.28125 0 14.957031zm44.492187 22.628906c-16.632813 0-30.109375-13.542969-30.109375-30.105469 0-16.601562 13.511719-30.109375 30.109375-30.109375 16.636719 0 30.109375 13.550781 30.109375 30.109375 0 16.546875-13.464844 30.105469-30.109375 30.105469zm298.765625-26.996094c0 2.40625-1.960938 4.367188-4.367188 4.367188h-249.90625c.800782-4.800781.820313-10.023438 0-14.957031h249.90625c2.40625 0 4.367188 1.957031 4.367188 4.367187zm0 0"/><path d="m512 259.847656c0-10.679687-8.6875-19.367187-19.367188-19.367187h-53.867187c-4.179687-7.269531-10.371094-13.371094-18.101563-17.445313-3.667968-1.929687-8.203124-.523437-10.132812 3.140625-1.929688 3.664063-.523438 8.199219 3.140625 10.132813 11.136719 5.863281 17.164063 17.726562 15.949219 29.726562-1.542969 15.117188-14.355469 27.03125-29.953125 27.03125-16.65625 0-30.109375-13.566406-30.109375-30.105468 0-11.003907 6.003906-21.332032 16.105468-26.652344 3.664063-1.933594 5.070313-6.46875 3.140626-10.132813-1.929688-3.664062-6.464844-5.070312-10.132813-3.140625-7.730469 4.074219-13.921875 10.175782-18.101563 17.445313h-341.203124c-10.679688 0-19.367188 8.6875-19.367188 19.367187v6.222656c0 10.679688 8.6875 19.367188 19.367188 19.367188h341.214843c7.800781 13.511719 22.394531 22.628906 39.085938 22.628906 16.691406 0 31.28125-9.117187 39.082031-22.628906h53.882812c10.679688 0 19.367188-8.6875 19.367188-19.367188zm-156.824219 10.589844h-335.808593c-2.40625 0-4.367188-1.960938-4.367188-4.367188v-6.222656c0-2.410156 1.960938-4.367187 4.367188-4.367187h335.808593c-.832031 4.957031-.792969 10.207031 0 14.957031zm141.824219-4.367188c0 2.40625-1.960938 4.367188-4.367188 4.367188h-48.476562c.847656-5.035156.789062-10.261719 0-14.957031h48.476562c2.40625 0 4.367188 1.957031 4.367188 4.367187zm0 0"/><path d="m512 368.769531c0-10.675781-8.6875-19.363281-19.367188-19.363281h-255.316406c-7.800781-13.511719-22.390625-22.632812-39.082031-22.632812s-31.28125 9.121093-39.082031 22.632812h-139.785156c-10.679688 0-19.367188 8.6875-19.367188 19.363281v6.226563c0 10.675781 8.6875 19.367187 19.367188 19.367187h139.785156c7.800781 13.507813 22.390625 22.628907 39.082031 22.628907s31.28125-9.121094 39.082031-22.628907h255.316406c10.679688 0 19.367188-8.691406 19.367188-19.367187zm-358.257812 10.59375h-134.375c-2.40625 0-4.367188-1.960937-4.367188-4.367187v-6.222656c0-2.410157 1.960938-4.367188 4.367188-4.367188h134.375c-.828126 4.929688-.789063 10.222656 0 14.957031zm44.492187 22.628907c-16.613281 0-30.109375-13.523438-30.109375-30.109376 0-16.570312 13.484375-30.109374 30.109375-30.109374 16.609375 0 30.109375 13.523437 30.109375 30.109374 0 16.570313-13.484375 30.109376-30.109375 30.109376zm298.765625-26.996094c0 2.40625-1.960938 4.367187-4.367188 4.367187h-249.90625c.796876-4.765625.839844-9.941406 0-14.957031h249.90625c2.40625 0 4.367188 1.957031 4.367188 4.363281zm0 0"/><path d="m512 41.996094c0-10.679688-8.6875-19.367188-19.367188-19.367188h-175.753906c-4.144531 0-7.5 3.359375-7.5 7.5s3.355469 7.5 7.5 7.5h175.753906c2.40625 0 4.367188 1.960938 4.367188 4.367188v6.222656c0 2.410156-1.960938 4.367188-4.367188 4.367188h-325.125c.851563-5.101563.789063-10.238282 0-14.957032h114.371094c4.140625 0 7.5-3.359375 7.5-7.5s-3.359375-7.5-7.5-7.5h-119.777344c-7.800781-13.511718-22.394531-22.628906-39.085937-22.628906-16.6875 0-31.28125 9.117188-39.082031 22.628906h-64.566406c-10.679688 0-19.367188 8.6875-19.367188 19.367188v6.222656c0 10.679688 8.6875 19.367188 19.367188 19.367188h64.566406c7.800781 13.511718 22.390625 22.628906 39.082031 22.628906s31.28125-9.117188 39.085937-22.628906h330.53125c10.679688 0 19.367188-8.6875 19.367188-19.367188zm-433.476562 10.589844h-59.15625c-2.40625 0-4.367188-1.957032-4.367188-4.367188v-6.222656c0-2.40625 1.960938-4.367188 4.367188-4.367188h59.15625c-.84375 5.066406-.777344 10.289063 0 14.957032zm44.492187 22.632812c-16.660156 0-30.105469-13.574219-30.105469-30.109375 0-16.582031 13.488282-30.109375 30.105469-30.109375 16.625 0 30.109375 13.535156 30.109375 30.109375 0 16.582031-13.496094 30.109375-30.109375 30.109375zm0 0"/></svg>