<svg id="Capa_1" enable-background="new 0 0 512 512" height="512" viewBox="0 0 512 512" width="512" xmlns="http://www.w3.org/2000/svg"><g><g><g><path d="m88.29 328.495h331.242v47.609h-331.242z" fill="#4981f8"/></g></g><g><g><path d="m88.29 144.738h331.242v47.609h-331.242z" fill="#4981f8"/></g></g><g><g><path d="m465.292 144.738h-418.584c-5.888 0-10.661-4.773-10.661-10.661v-115.916c0-5.888 4.773-10.661 10.661-10.661h418.584c5.888 0 10.661 4.773 10.661 10.661v115.917c-.001 5.887-4.773 10.66-10.661 10.66z" fill="#80b6fc"/></g></g><g><g><path d="m421.753 101.056h-36.034c-3.441 0-6.23-2.789-6.23-6.23v-35.928c0-3.441 2.789-6.23 6.23-6.23h36.034c3.441 0 6.23 2.789 6.23 6.23v35.928c0 3.441-2.789 6.23-6.23 6.23z" fill="#8c818f"/></g></g><g><g><path d="m323.263 101.056h-36.034c-3.44 0-6.23-2.789-6.23-6.23v-35.928c0-3.441 2.789-6.23 6.23-6.23h36.034c3.441 0 6.23 2.789 6.23 6.23v35.928c-.001 3.441-2.79 6.23-6.23 6.23z" fill="#8c818f"/></g></g><g><g><path d="m224.772 101.056h-36.034c-3.441 0-6.23-2.789-6.23-6.23v-35.928c0-3.441 2.789-6.23 6.23-6.23h36.035c3.44 0 6.23 2.789 6.23 6.23v35.928c-.002 3.441-2.791 6.23-6.231 6.23z" fill="#8c818f"/></g></g><g><g><path d="m126.281 101.056h-36.035c-3.441 0-6.23-2.789-6.23-6.23v-35.928c0-3.441 2.789-6.23 6.23-6.23h36.034c3.441 0 6.23 2.789 6.23 6.23v35.928c0 3.441-2.789 6.23-6.229 6.23z" fill="#8c818f"/></g></g><g><g><path d="m465.292 324.619h-418.584c-5.888 0-10.661-4.773-10.661-10.661v-115.916c0-5.888 4.773-10.661 10.661-10.661h418.584c5.888 0 10.661 4.773 10.661 10.661v115.916c-.001 5.888-4.773 10.661-10.661 10.661z" fill="#80b6fc"/></g></g><g><g><path d="m421.753 280.937h-36.034c-3.441 0-6.23-2.789-6.23-6.23v-35.928c0-3.441 2.789-6.23 6.23-6.23h36.034c3.441 0 6.23 2.789 6.23 6.23v35.928c0 3.441-2.789 6.23-6.23 6.23z" fill="#8c818f"/></g></g><g><g><path d="m323.263 280.937h-36.034c-3.44 0-6.23-2.789-6.23-6.23v-35.928c0-3.441 2.789-6.23 6.23-6.23h36.034c3.441 0 6.23 2.789 6.23 6.23v35.928c-.001 3.441-2.79 6.23-6.23 6.23z" fill="#8c818f"/></g></g><g><g><path d="m224.772 280.937h-36.034c-3.441 0-6.23-2.789-6.23-6.23v-35.928c0-3.441 2.789-6.23 6.23-6.23h36.035c3.44 0 6.23 2.789 6.23 6.23v35.928c-.002 3.441-2.791 6.23-6.231 6.23z" fill="#8c818f"/></g></g><g><g><path d="m126.281 280.937h-36.035c-3.441 0-6.23-2.789-6.23-6.23v-35.928c0-3.441 2.789-6.23 6.23-6.23h36.034c3.441 0 6.23 2.789 6.23 6.23v35.928c0 3.441-2.789 6.23-6.229 6.23z" fill="#8c818f"/></g></g><g><g><path d="m465.292 504.5h-418.584c-5.888 0-10.661-4.773-10.661-10.661v-115.916c0-5.888 4.773-10.661 10.661-10.661h418.584c5.888 0 10.661 4.773 10.661 10.661v115.917c-.001 5.887-4.773 10.66-10.661 10.66z" fill="#80b6fc"/></g></g><g><g><path d="m389.532 328.495h30v47.61h-30z" fill="#4071f7"/></g></g><g><g><path d="m389.532 144.738h30v47.609h-30z" fill="#4071f7"/></g></g><g><g><path d="m465.292 7.5h-30c5.888 0 10.661 4.773 10.661 10.661v115.916c0 5.888-4.773 10.661-10.661 10.661h30c5.888 0 10.661-4.773 10.661-10.661v-115.916c-.001-5.888-4.774-10.661-10.661-10.661z" fill="#62a4fb"/></g></g><g><g><path d="m465.292 187.381h-30c5.888 0 10.661 4.773 10.661 10.661v115.916c0 5.888-4.773 10.661-10.661 10.661h30c5.888 0 10.661-4.773 10.661-10.661v-115.916c-.001-5.888-4.774-10.661-10.661-10.661z" fill="#62a4fb"/></g></g><g><g><path d="m465.292 367.262h-30c5.888 0 10.661 4.773 10.661 10.661v115.916c0 5.888-4.773 10.661-10.661 10.661h30c5.888 0 10.661-4.773 10.661-10.661v-115.916c-.001-5.888-4.774-10.661-10.661-10.661z" fill="#62a4fb"/></g></g><g><g><path d="m421.753 460.818h-36.034c-3.441 0-6.23-2.789-6.23-6.23v-35.928c0-3.44 2.789-6.23 6.23-6.23h36.034c3.441 0 6.23 2.789 6.23 6.23v35.928c0 3.441-2.789 6.23-6.23 6.23z" fill="#8c818f"/></g></g><g><g><path d="m323.263 460.818h-36.034c-3.44 0-6.23-2.789-6.23-6.23v-35.928c0-3.44 2.789-6.23 6.23-6.23h36.034c3.441 0 6.23 2.789 6.23 6.23v35.928c-.001 3.441-2.79 6.23-6.23 6.23z" fill="#8c818f"/></g></g><g><g><path d="m224.772 460.818h-36.034c-3.441 0-6.23-2.789-6.23-6.23v-35.928c0-3.44 2.789-6.23 6.23-6.23h36.035c3.44 0 6.23 2.789 6.23 6.23v35.928c-.002 3.441-2.791 6.23-6.231 6.23z" fill="#8c818f"/></g></g><g><g><path d="m126.281 460.818h-36.035c-3.441 0-6.23-2.789-6.23-6.23v-35.928c0-3.44 2.789-6.23 6.23-6.23h36.034c3.441 0 6.23 2.789 6.23 6.23v35.928c0 3.441-2.789 6.23-6.229 6.23z" fill="#8c818f"/></g></g><g><path d="m421.753 108.556c7.57 0 13.729-6.159 13.729-13.729v-35.929c0-7.571-6.159-13.73-13.729-13.73h-36.035c-7.57 0-13.729 6.159-13.729 13.73v35.928c0 7.57 6.159 13.729 13.73 13.729h36.034zm-34.764-48.388h33.494v33.388h-33.494z"/><path d="m224.771 108.556c7.571 0 13.73-6.159 13.73-13.729v-35.929c0-7.571-6.159-13.73-13.73-13.73h-36.034c-7.571 0-13.73 6.159-13.73 13.73v35.928c0 7.57 6.159 13.729 13.73 13.729h36.034zm-34.764-48.388h33.494v33.388h-33.494z"/><path d="m126.281 225.049h-36.035c-7.57 0-13.729 6.159-13.729 13.729v35.928c0 7.571 6.159 13.73 13.729 13.73h36.035c7.57 0 13.729-6.159 13.729-13.73v-35.929c0-7.569-6.159-13.728-13.729-13.728zm-1.271 48.388h-33.493v-33.388h33.494v33.388z"/><path d="m421.753 468.318c7.57 0 13.729-6.159 13.729-13.729v-35.929c0-7.57-6.159-13.729-13.729-13.729h-36.035c-7.57 0-13.729 6.159-13.729 13.729v35.929c0 7.57 6.159 13.729 13.73 13.729zm-34.764-48.388h33.494v33.388h-33.494z"/><path d="m126.281 468.318c7.57 0 13.729-6.159 13.729-13.729v-35.929c0-7.57-6.159-13.729-13.729-13.729h-36.035c-7.57 0-13.729 6.159-13.729 13.729v35.929c0 7.57 6.159 13.729 13.729 13.729zm-34.764-48.388h33.494v33.388h-33.494z"/><path d="m465.292 152.238c10.014 0 18.161-8.147 18.161-18.161v-115.916c0-10.014-8.147-18.161-18.161-18.161h-359.271c-4.142 0-7.5 3.358-7.5 7.5s3.358 7.5 7.5 7.5h359.271c1.743 0 3.161 1.418 3.161 3.161v115.917c0 1.743-1.418 3.161-3.161 3.161h-152.547v-28.683h10.518c7.57 0 13.729-6.159 13.729-13.729v-35.929c0-7.571-6.159-13.73-13.73-13.73h-36.034c-7.571 0-13.73 6.159-13.73 13.73v35.928c0 7.57 6.159 13.729 13.73 13.729h10.517v28.683h-155.782l-22.983-28.683h7.301c7.57 0 13.729-6.159 13.729-13.729v-35.928c0-7.571-6.159-13.73-13.729-13.73h-36.035c-7.57 0-13.729 6.159-13.729 13.73v35.928c0 7.57 6.159 13.729 13.729 13.729h9.512l22.983 28.683h-76.033c-1.743 0-3.161-1.418-3.161-3.161v-115.916c0-1.743 1.418-3.161 3.161-3.161h29.313c4.142 0 7.5-3.358 7.5-7.5s-3.358-7.5-7.5-7.5h-29.313c-10.014 0-18.161 8.147-18.161 18.161v115.917c0 10.014 8.147 18.161 18.161 18.161h34.082v27.643h-34.082c-10.014 0-18.161 8.147-18.161 18.161v115.916c0 10.014 8.147 18.161 18.161 18.161h34.314c-.146.583-.232 1.191-.232 1.819v25.824h-34.082c-10.014 0-18.161 8.147-18.161 18.161v28.701c0 4.142 3.358 7.5 7.5 7.5s7.5-3.358 7.5-7.5v-28.701c0-1.743 1.418-3.161 3.161-3.161h152.546v30.168h-10.517c-7.571 0-13.73 6.159-13.73 13.729v35.929c0 7.57 6.159 13.729 13.73 13.729h36.034c7.571 0 13.73-6.159 13.73-13.729v-35.929c0-7.57-6.159-13.729-13.73-13.729h-10.517v-30.168h108.881l-23.124 30.168h-12.783c-7.571 0-13.73 6.159-13.73 13.729v35.929c0 7.57 6.159 13.729 13.73 13.729h36.035c7.57 0 13.729-6.159 13.729-13.729v-35.929c0-7.57-6.159-13.729-13.73-13.729h-4.351l23.124-30.168h123.257c1.743 0 3.161 1.418 3.161 3.161v115.916c0 1.743-1.418 3.161-3.161 3.161h-418.584c-1.743 0-3.161-1.418-3.161-3.161v-57.215c0-4.142-3.358-7.5-7.5-7.5s-7.5 3.358-7.5 7.5v57.215c0 10.014 8.147 18.161 18.161 18.161h418.583c10.014 0 18.161-8.147 18.161-18.161v-115.917c0-10.014-8.147-18.161-18.161-18.161h-38.26v-25.824c0-.629-.086-1.236-.232-1.819h38.491c10.014 0 18.161-8.147 18.161-18.161v-115.916c0-10.014-8.147-18.161-18.161-18.161h-38.26v-27.643zm-176.794-92.07h33.494v33.388h-33.494zm-196.981 0h33.494v33.388h-33.494zm131.985 393.15h-33.494v-33.388h33.494zm98.49 0h-33.494v-33.388h33.494zm-24.247-301.08v27.643h-121.613l-22.15-27.643zm-201.955 0h38.97l22.15 27.643h-61.12zm-52.243 161.72v-115.916c0-1.743 1.418-3.161 3.161-3.161h122.221l24.173 30.168h-4.365c-7.571 0-13.73 6.159-13.73 13.729v35.928c0 7.571 6.159 13.73 13.73 13.73h10.517v28.682h-152.546c-1.743.001-3.161-1.417-3.161-3.16zm146.46-40.521v-33.388h33.494v33.388zm-94.217 86.325v-25.824c0-.629-.086-1.236-.231-1.819h103.696v27.643zm118.464 0v-27.643h141.567l-21.189 27.643zm197.778-25.823v25.824h-58.499l21.189-27.643h37.542c-.146.583-.232 1.19-.232 1.819zm56.421-135.897v115.916c0 1.743-1.418 3.161-3.161 3.161h-79.073l21.985-28.682h13.549c7.57 0 13.729-6.159 13.729-13.73v-35.929c0-7.57-6.159-13.729-13.729-13.729h-36.035c-7.57 0-13.729 6.159-13.729 13.729v35.928c0 7.571 6.159 13.73 13.73 13.73h3.585l-21.985 28.682h-88.823-64.242v-28.682h10.517c7.571 0 13.73-6.159 13.73-13.73v-35.929c0-7.57-6.159-13.729-13.73-13.729h-12.448l-24.173-30.168h109.594v30.168h-10.517c-7.571 0-13.73 6.159-13.73 13.729v35.928c0 7.571 6.159 13.73 13.73 13.73h36.035c7.57 0 13.729-6.159 13.729-13.73v-35.929c0-7.57-6.159-13.729-13.73-13.729h-10.517v-30.168h152.546c1.745.002 3.163 1.42 3.163 3.163zm-81.464 75.395v-33.388h33.494v33.388zm-64.997-33.388v33.388h-33.494v-33.388zm90.04-60.168h-99.287v-27.643h99.287z"/></g></g></svg>