<svg id="Capa_1" enable-background="new 0 0 506.5 506.5" height="512" viewBox="0 0 506.5 506.5" width="512" xmlns="http://www.w3.org/2000/svg"><g><g id="_x3C_Grup_x3E__24_"><path d="m463.07 125.115c19.85 0 35.93 16.09 35.93 35.93v268.81c0 19.84-16.08 35.93-35.93 35.93h-419.64c-19.85 0-35.93-16.09-35.93-35.93v-268.81c0-19.84 16.08-35.93 35.93-35.93z" fill="#6cf5c2"/><path d="m211.72 189.365c-42.37 16.6-72.37 57.84-72.37 106.08 0 62.91 51 113.9 113.9 113.9 18.83 0 36.6-4.57 52.25-12.67l1.513-67.063-66.148-140.247z" fill="#05e39c"/><path d="m446.637 317.645-14.09-165.31c-3.13-36.73-35.44-63.97-72.17-60.84l-89.35 7.62c-36.74 3.13-63.98 35.44-60.84 72.18l14.08 165.31c3.14 36.73 35.45 63.97 72.18 60.84l89.35-7.62c36.74-3.13 63.98-35.45 60.84-72.18zm-115.93-138.71c-14.88 1.27-27.97-9.76-29.24-24.64-1.27-14.89 9.77-27.98 24.65-29.25s27.97 9.77 29.24 24.65-9.77 27.98-24.65 29.24z" fill="#fe646f"/><path d="m73.43 465.78h-30c-19.85 0-35.93-16.09-35.93-35.93v-268.81c0-19.84 16.08-35.93 35.93-35.93h30c-19.85 0-35.93 16.09-35.93 35.93v268.81c0 19.84 16.08 35.93 35.93 35.93z" fill="#05e39c"/><path d="m253.99 334.82-13.97-166.23c-2.87-33.95 19.72-64.13 51.68-71.24l-20.67 1.76c-36.74 3.13-63.98 35.44-60.84 72.18l14.08 165.31c3.14 36.73 35.45 63.97 72.18 60.84l17.35-1.48c-31.33-2.93-57.04-28.25-59.81-61.14z" fill="#fd4755"/></g><g><path d="m368.391 203.897c-3.643-1.967-8.194-.605-10.161 3.04l-68.117 126.265c-1.967 3.646-.605 8.194 3.04 10.161 1.132.611 2.352.9 3.554.9 2.668 0 5.252-1.427 6.607-3.94l68.117-126.265c1.966-3.645.605-8.194-3.04-10.161z"/><path d="m314.409 221.726c-.64-7.509-4.165-14.319-9.928-19.177s-13.07-7.187-20.58-6.539c-7.509.64-14.32 4.165-19.178 9.928s-7.18 13.071-6.539 20.58c.64 7.51 4.166 14.32 9.928 19.178 5.136 4.328 11.498 6.644 18.138 6.644.811 0 1.627-.034 2.443-.104 15.501-1.323 27.037-15.009 25.716-30.51zm-26.989 15.563c-3.517.29-6.939-.788-9.64-3.063-2.699-2.274-4.351-5.465-4.65-8.981-.3-3.518.788-6.94 3.063-9.639 2.274-2.699 5.464-4.351 8.981-4.65.383-.032.765-.049 1.145-.049 3.109 0 6.09 1.085 8.495 3.112 2.698 2.274 4.35 5.464 4.649 8.98.619 7.261-4.783 13.671-12.043 14.29z"/><path d="m397.503 300.913c-5.763-4.855-13.068-7.186-20.581-6.539-7.51.64-14.32 4.166-19.178 9.928-4.856 5.763-7.18 13.072-6.539 20.581 1.252 14.69 13.608 25.819 28.092 25.819.799 0 1.605-.034 2.417-.104 7.509-.64 14.32-4.165 19.178-9.928s7.18-13.071 6.539-20.58c-.64-7.509-4.166-14.319-9.928-19.177zm-8.081 30.09c-2.274 2.699-5.464 4.351-8.981 4.65-7.269.611-13.671-4.784-14.29-12.044-.3-3.518.788-6.94 3.063-9.64 2.274-2.699 5.465-4.351 8.981-4.65.384-.032.765-.049 1.146-.049 3.108 0 6.089 1.085 8.494 3.112 2.699 2.274 4.351 5.465 4.65 8.981.3 3.519-.788 6.942-3.063 9.64z"/><path d="m499 232.25c-4.143 0-7.5 3.357-7.5 7.5v188.95c0 15.676-12.754 28.43-28.43 28.43h-360.32c-4.143 0-7.5 3.357-7.5 7.5s3.357 7.5 7.5 7.5h360.32c23.947 0 43.43-19.482 43.43-43.43v-188.95c0-4.143-3.357-7.5-7.5-7.5z"/><path d="m463.07 116.46h-34.683c-3.942-6.067-8.802-11.585-14.491-16.38-15.164-12.783-34.403-18.902-54.159-17.21l-18.281 1.558c-5.582-13.493-14.92-25.509-26.737-34.27-13.931-10.329-30.398-15.788-47.619-15.788-21.33 0-41.472 8.395-56.713 23.638-15.242 15.244-23.637 35.389-23.637 56.723 0 .574.015 1.152.028 1.729h-143.348c-23.948 0-43.43 19.482-43.43 43.43v268.81c0 23.947 19.482 43.43 43.43 43.43h25.32c4.143 0 7.5-3.357 7.5-7.5s-3.357-7.5-7.5-7.5h-25.32c-15.676 0-28.43-12.754-28.43-28.43v-268.81c0-15.676 12.754-28.43 28.43-28.43h166.73c-6.007 12.053-8.624 25.553-7.451 39.313l1.078 12.646c-20.239 9.026-37.553 23.341-50.3 41.686-14.155 20.371-21.638 44.295-21.638 69.186 0 66.94 54.46 121.4 121.4 121.4 18.847 0 37.591-4.439 54.325-12.826l78.863-6.722c19.762-1.685 37.685-10.963 50.467-26.127s18.895-34.398 17.21-54.159l-14.09-165.311c-.564-6.612-1.996-13.01-4.196-19.086h27.242c15.676 0 28.43 12.754 28.43 28.43v45.86c0 4.143 3.357 7.5 7.5 7.5s7.5-3.357 7.5-7.5v-45.86c0-23.948-19.482-43.43-43.43-43.43zm-261.32-1.73c0-36.04 29.315-65.36 65.35-65.36 24.664 0 47.503 14.583 58.489 36.41l-55.202 4.705c-19.693 1.679-37.558 10.902-50.331 25.975h-18.277c-.017-.578-.029-1.155-.029-1.73zm-54.9 179.56c0-40.676 22.578-76.904 58.297-94.917l11.652 136.709c1.685 19.762 10.963 37.685 26.128 50.467 7.035 5.93 14.951 10.41 23.384 13.356-4.296.52-8.652.785-13.06.785-58.67 0-106.401-47.731-106.401-106.4zm278.586 66.058c-10.2 12.101-24.502 19.505-40.271 20.85l-89.352 7.616c-15.771 1.34-31.117-3.533-43.219-13.733-12.101-10.2-19.505-24.502-20.85-40.271l-14.09-165.31c-1.344-15.77 3.533-31.118 13.733-43.219s24.502-19.505 40.271-20.85l59.179-5.044c1.071 4.701 1.622 9.503 1.622 14.344 0 .593-.019 1.189-.035 1.785-2.283-.262-4.607-.299-6.946-.097-9.194.783-17.533 5.101-23.479 12.155-5.947 7.056-8.791 16.004-8.007 25.197.783 9.194 5.101 17.533 12.155 23.479 6.287 5.3 14.077 8.135 22.205 8.135.993 0 1.992-.042 2.992-.128 9.194-.783 17.533-5.101 23.479-12.155 5.947-7.056 8.791-16.004 8.007-25.197-.783-9.194-5.101-17.533-12.155-23.479-1.133-.955-2.32-1.821-3.544-2.615.21-2.364.328-4.731.328-7.081 0-5.263-.52-10.49-1.549-15.628l15.1-1.287c1.717-.146 3.429-.219 5.133-.219 13.94 0 27.303 4.862 38.086 13.952 5.385 4.54 9.834 9.895 13.239 15.827.06.117.124.231.19.345 4.131 7.311 6.687 15.482 7.421 24.098l14.09 165.311c1.344 15.77-3.533 31.118-13.733 43.219zm-97.708-204.542c1.131.607 2.347.896 3.546.896 2.672 0 5.258-1.431 6.612-3.948 2.417-4.494 4.371-9.18 5.883-14.005 2.351 2.974 3.787 6.568 4.117 10.431.443 5.202-1.166 10.265-4.53 14.256-3.364 3.992-8.083 6.435-13.284 6.878-5.195.441-10.264-1.166-14.256-4.53s-6.435-8.082-6.878-13.284 1.166-10.265 4.53-14.256c3.364-3.992 8.082-6.435 13.284-6.878.566-.048 1.131-.072 1.693-.072.618 0 1.232.034 1.842.092-1.301 4.944-3.17 9.723-5.613 14.264-1.961 3.646-.594 8.194 3.054 10.156z"/></g></g></svg>